<svg width="210mm" height="297mm" version="1.1" viewBox="0 0 210 297" xmlns="http://www.w3.org/2000/svg">
 <style/>
 <g id="left-arm">
  <g transform="matrix(.79924 0 0 .79924 42.643 45.735)">
   <path d="m137.92 160.82 1.575-1.3464 1.486 7.5292z" fill="#745050"/>
   <path d="m116.51 118.7s11.717-2.8283 18.236-0.92542l-0.7333 23.394s5.0722 3.4973 7.3399 5.5682c3.1871 2.9105 6.8566 7.1594 6.8566 7.1594s-5.7111-3.8978-11.368-3.1181c2.8426 4.4865 3.8027 14.996 3.8027 14.996s-2.539-4.525-5.2671-8.0725c-1.314-1.7087-4.9911-6.508-4.9911-6.508l-2.0958 8.0355c-2.1544-12.912-11.78-40.529-11.78-40.529z" fill="#2e8b57"/>
   <path d="m129.3 155.11-1.125 5.15-0.59326-6.5286z" fill="#745050"/>
   <path d="m143.38 151.25 1.8079-0.77015 4.1132 4.3544z" fill="#745050"/>
  </g>
  <path d="m150.34 139.86c-9.5975 2.7576-14.575 0.7397-14.575 0.73963 0 0-19.529-45.989-6.6874-47.045 15.333-1.2607 21.613 24.509 21.263 46.305z" fill="#3b3b3b" stroke="#2c2c2c" stroke-width=".16553"/>
 </g>
 <g id="left-leg" transform="translate(15.119 20.411)">
  <path d="m128.65 141.21-6.4354 51.241c1.917 7.9915-5.8135 3.1923-11.319-0.52567l-7.8715-30.014" fill="#dc143c"/>
  <path d="m128.65 141.21-6.7005 51.116c-0.4102 3.1294-3.9782-14.742-7.8379-22.335-4.2174-8.2974-11.087-8.0804-11.087-8.0804z" fill="#b1b1b1" stop-color="#000000" style="font-variation-settings:normal;mix-blend-mode:darken;paint-order:stroke markers fill"/>
  <g transform="matrix(.93897 0 0 .85634 6.7681 27.571)">
   <g>
    <path d="m122.95 192.54c5.3584 2.9228 13.618 7.3264 19.406 9.3042l-5.4364 0.57577 12.177 7.7455c-11.85-3.3146-17.404-3.6089-17.404-3.6089l5.5772 16.396c-16.095-14.816-23.529-22.149-26.993-27.273-1.1867-1.7556 0.61891-3.7534 0.61891-3.7534s5.4514 2.1235 7.9587 2.2952c2.4495 0.1677 4.0958-1.6813 4.0958-1.6813z" fill="#3cb371" stop-color="#000000" style="font-variation-settings:normal;mix-blend-mode:normal;paint-order:markers fill stroke"/>
    <path d="m131.95 200.6c-6.2536 16.18-13.811 2.7369-19.994-6.7942-0.65407-1.0498 5.8712 2.0987 5.8712 2.0987 5.4053 1.6545 7.9814-0.75582 14.123 4.6955z" fill="#0cc8fc" stop-color="#000000" style="font-variation-settings:normal;mix-blend-mode:luminosity;paint-order:stroke markers fill"/>
   </g>
   <g fill="#745050">
    <path d="m135.37 217.08 1.8988 5.8731-6.0412-5.351z"/>
    <path d="m143.08 206.13 6.0093 4.0305-6.4192-1.7602z"/>
    <path d="m140.03 200.84 2.3192 1.0015-2.4456 0.22932z"/>
   </g>
  </g>
  <rect x="87.514" y="191.44" width="5.6573" height="4.7211" fill-opacity="0" opacity=".771" stop-color="#000000" style="font-variation-settings:normal;paint-order:fill markers stroke"/>
 </g>
 <g id="right-leg" transform="translate(15.119 20.411)">
  <g>
   <path d="m97.362 194.58s8.7792 7.6788 11.864 10.473c4.7209 4.2768 11.783 15.045 11.783 15.045l-16.872-9.8187-0.24626 18.543c-1.3479-2.2489-10.517-23.224-12.033-19.828l-2.445 5.4788c-1.6833-2.7388-0.59012-13.983-1.8992-18.311 0 0 4.0194 1.6719 6.0202 1.2327 1.5472-0.33966 3.8283-2.8158 3.8283-2.8158z" fill="#3cb371"/>
   <path d="m73.189 155.29 29.833 6.6222s-4.6188 34.06-5.4589 32.94c-2.4051 3.3225-5.8755 4.2559-10.049 1.3158-9.9357-17.569-14.325-40.877-14.325-40.877" fill="#dc143c"/>
   <path d="m103.45 161.01-4.5461 28.671c-4.7284-15.507-11.287-25.645-25.712-34.396z" fill="#b1143c" stop-color="#000000" style="font-variation-settings:normal;mix-blend-mode:normal;paint-order:stroke markers fill"/>
  </g>
  <g transform="matrix(.93897 0 0 .85634 6.7681 27.571)"></g>
  <rect x="87.514" y="191.44" width="5.6573" height="4.7211" fill-opacity="0" opacity=".771" stop-color="#000000" style="font-variation-settings:normal;paint-order:fill markers stroke"/>
  <path d="m98.383 196.77c1.5827 0.46539 6.2881 5.8902 6.2881 5.8902s1.664 4.3739 0.035 4.4324c-15.657 0.71251-17.745-7.4575-6.3232-10.323z" fill="#49c17e" stop-color="#000000" style="font-variation-settings:normal;mix-blend-mode:luminosity;paint-order:stroke markers fill"/>
  <g fill="#745050">
   <path d="m91.206 210.83-1.8934 4.3474-1.0445-5.8096z"/>
   <path d="m104.13 222.39-0.0894 7.3208-2.9822-6.1437z"/>
   <path d="m117.05 214.35 3.9613 5.7501-7.5006-4.2055z"/>
  </g>
 </g>
 <g id="pelvis">
  <path d="m84.51 160.72c48.932 3.3258 59.256 0.89785 59.256 0.89785s-8.7696 20.697-25.626 20.701c-10.234 2e-3 -29.739-6.1497-29.739-6.1497s-4.5474-8.809-3.892-15.449" fill="#b1143c"/>
 </g>
 <g id="torso">
  <g transform="matrix(.60986 0 0 .60986 65.251 28.69)" fill="#464646">
   <g transform="matrix(1.1782 0 0 1.1782 -25.097 -34.169)">
    <path d="m128.71 195.78c-39.013 28.4-54.296 12.501-80.121 16.284l31.001 0.12385c-32.167-90.24 54.391-160.4 49.12-16.407z" fill="#464646" stroke="#3b3b3b" stroke-width="1.5574"/>
    <path d="m130.57 214.01s-50.624 13.997-82.145 0.14492c0.14371-10.52 3.2942-45.87 3.2942-45.87 2.8559-58.345 14.175-61.071 31.695-40.51 2.2689 29.413 0.99222 55.456-3.8234 84.416 19.693 0.1221 40.149-7.6232 48.025-15.69 3.7145-3.8044 1.1344-55.205-14.649-79.329 18.964 13.823 21.734 65.972 17.603 96.838z" fill="#3b3b3b" style="mix-blend-mode:normal"/>
   </g>
  </g>
 </g>
 <g id="right-arm">
  <g transform="translate(15.119 25.702)">
   <path d="m72.579 119.94s5.1794 3.7826 8.408 5.0322 8.75 1.4199 8.75 1.4199l-4.6711 16.852s5.0722 3.4973 7.3399 5.5682c3.1871 2.9105 6.8566 7.1594 6.8566 7.1594s-5.7111-3.8978-11.368-3.1181c2.8426 4.4865 3.8027 14.996 3.8027 14.996s-2.539-4.525-5.2671-8.0725c-1.314-1.7087-4.9911-6.508-4.9911-6.508l-2.0958 8.0355c-2.1544-12.912-4.4957-26.734-6.764-41.365z" fill="#3cb371"/>
   <path d="m88.15 128.22c-2.2838 5.1275-3.6475 12.174-3.5117 15.227 0.14099 3.1717 7.4022 6.8139 7.4022 6.8139-4.2501 1.3362-10.938 0.23609-12.44-2.3006 1.8105-13.703-3.205-17.714-5.1322-23.975 3.182 4.5475 8.0421 4.8314 13.681 4.2346z" fill="#49c17e" stop-color="#000000" style="font-variation-settings:normal;mix-blend-mode:luminosity;paint-order:stroke markers fill"/>
  </g>
  <path d="m97.641 97.377c-11.448 1.0307-11.678 26.625-9.9425 48.269 5.6021 5.202 11.148 5.6628 17.158 6.4521 3.2394-14.087 17.672-55.248-7.2155-54.721z" fill="#464646" stroke="#3b3b3b" stroke-linejoin="round" stroke-width="1.189"/>
  <g fill="#745050" stroke="#5c3c3c" stroke-width=".365">
   <path d="m104.25 189.61 1.9931-1.2628 0.90076 6.4424z"/>
   <path d="m95.469 183.74-1.125 4.314-0.84406-5.7762z" stroke-linejoin="bevel"/>
   <path d="m109.46 179.71 2.2259-1.439 3.7788 4.3544z"/>
  </g>
 </g>
 <g id="head">
  <g id="crest">
   <g fill="#008c00">
    <path d="m50.634 212.44-0.53307-16.736 9.0375 12.2" style="mix-blend-mode:luminosity"/>
    <path d="m35.819 210.43 5.4727-5.9782 2.6538 6.1672" style="mix-blend-mode:luminosity"/>
    <path d="m32.175 206.4-0.24064-2.1908 3.4624-0.84023" style="mix-blend-mode:luminosity"/>
   </g>
   <g transform="translate(15.119 20.411)">
    <path d="m79.225 175.05c-10.086 26.343-92.736 35.795-57.933-1.7972 2.7699-2.2093-7.6245 14.817-2.1378 17.126 7.9952 3.3645 24.414-2.9815 27.964-6.8098 8.6275-9.304 23.974-36.603 23.974-36.603" fill="#3cb371"/>
    <path d="m67.135 156.33c7.4393 4.4313 6.4034 9.947-23.116 19.52l19.805-23.797" fill="#49c17f" style="mix-blend-mode:luminosity"/>
   </g>
   <g transform="translate(15.119 32.052)">
    <path d="m69.391 141.73c7.6878-17.301 1.5192-74.122 16.884-69.147 3.7279 1.207 9.9591 7.3329 9.9591 7.3329l6.801-11.557 10.171 7.42 0.5358-10.742 11.792 5.4761s1.1372-1.0704-7.4304-11.777c-30.098-8.6761-7.4105-26.448-10.667-32.065-21.338-17.977-50.28 10.723-50.28 10.723l10.175 10.541-20.039 2.6829 21.362 29.088-23.438 14.617 16.355 15.219-21.562 17.688 22.526 16.298-28.102 5.5022 9.5851 26.823-9.0375-12.2-6.155 14.914-2.6538-6.1672-8.999 2.445 4.0081-3.6387-3.5164-1.5995 4.851-2.7449-1.4484-5.4233s-6.2753 7.9004-6.0257 11.966 1.6897 7.1517 5.5203 8.5136 13.533 0.0968 18.612-1.8578c14.909-5.737 22.149-20.175 30.216-38.329z" fill="#2f4f4f" stroke="#264040" stroke-width=".6" style="mix-blend-mode:normal"/>
    <g fill="#008c00">
     <path d="m65.866 133.59s-12.101-9.5496-25.856-6.3599l21.562-17.688" style="mix-blend-mode:luminosity"/>
     <path d="m64.646 104.96s-12.093-10.324-19.429-10.64l20.498 2.2214" style="mix-blend-mode:luminosity"/>
     <path d="m47.293 50.617 20.039-2.6829-10.175-10.541 33.405 26.48" style="mix-blend-mode:luminosity"/>
     <path d="m56.237 159.62s-5.9145-9.6052-13.25-9.9211l19.55-6.1703" style="mix-blend-mode:luminosity"/>
    </g>
   </g>
   <path d="m33.354 200.61 1.4839-3.9153 2.0214 1.782" fill="#008c00" style="mix-blend-mode:luminosity"/>
  </g>
  <g transform="translate(15.119 32.582)">
   <g transform="matrix(.60986 0 0 .60986 40.772 -1.834)" fill="#a0522d" opacity=".86" stroke="#800000" stroke-width=".50831" style="mix-blend-mode:lighten;paint-order:fill markers stroke">
    <path d="m109.25 88.224-1.8527-2.3522-1.7718 2.5513 3.6245-0.19918" style="paint-order:fill markers stroke"/>
    <path d="m113.79 88.199-2.205-2.205-2.3398 2.2297z" style="paint-order:fill markers stroke"/>
    <path d="m120.67 88.199-2.0713-2.7395-1.0691 2.6059z" style="paint-order:fill markers stroke"/>
    <path d="m117.53 88.065-2.4722-2.1382-1.2695 2.2718z" style="paint-order:fill markers stroke"/>
    <path d="m124.15 88.199-1.2027-2.6727s-2.4722 2.7395-2.205 2.6727c0.26727-0.06682 3.4077 0 3.4077 0z" style="paint-order:fill markers stroke"/>
    <path d="m111.12 84.1-1.819 2.7167-2.0121-1.9678z" style="paint-order:fill markers stroke"/>
    <path d="m114.72 83.722-1.4174 3.1183-2.1734-2.7403z" style="paint-order:fill markers stroke"/>
    <path d="m114.72 83.722 2.3624 2.9293 1.2284-3.4963z" style="paint-order:fill markers stroke"/>
    <path d="m122.12 82.706 2.7049 3.5672 0.95931-3.7604z" style="paint-order:fill markers stroke"/>
    <path d="m122.12 82.706s-1.2639 3.7561-1.6418 3.6616c-0.37798-0.09449-2.5159-3.7561-2.5159-3.7561z" style="paint-order:fill markers stroke"/>
   </g>
   <a transform="matrix(.44668 0 0 .44668 64.564 19.991)">
    <path d="m96.087 16.039-2.503 13.054c-90.891-35.895-48.597 58.11 26.279 57.644l0.71864-15.068-29.671-0.94483 2.3174-3.7393 25.458-2.9152c-1.6483-19.843-9.7914-32.796-22.598-48.031z" fill="#3cb371" stroke="#008c71" stroke-width="1.1754"/>
   </a>
   <g transform="matrix(.44668 0 0 .44668 64.564 19.991)" stroke-width=".77685">
    <path d="m94.82 43.065c3.6038 12.418-9.7855 14.545-13.04 3.2128-3.2547-11.332 9.4363-15.63 13.04-3.2128z" fill="#2f4f4f"/>
    <path d="m94.919 45.147c-3.1832-4.2718-13.258-1.6508-13.258-1.6508s8.1887 3.9213 13.258 1.6508z" fill="#f0ffff" stroke="#353535" stroke-linejoin="bevel" stroke-width=".77685"/>
    <path d="m81.661 43.496c-6.1127-0.20013-6.6679-1.412-6.6679-1.412" fill="none" stroke="#353535" stroke-width=".77685"/>
   </g>
   <path d="m109.67 37.963 2.7784 6.2848-2.1952 0.95294" fill-opacity="0" stroke="#008c71" stroke-width=".618"/>
   <path d="m118.1 58.735-0.084-3.6141c-2.7944 3.469-8.9976 2.1808-12.616 0.63464-6.3419-2.998-13.996-9.8027-15.332-13.01-0.45881-1.2242 10.769 5.6573 10.769 5.6573-8.0856-17.876-0.18756-17.14 9.8234-8.9396-1.4312-3.156-1.8536-5.6418-2.1754-7.0949-0.31373-1.4166-0.11906-2.0739 1.445-1.698 1.0824 0.26016-2.4504-3.5147-2.4504-3.5147l-1.118 5.8306c-12.941-4.5788-18.467-4.2619-21.421-1.537-4.3853 4.0456-0.48802 9.5764 3.3137 14.323 4.7251 5.8993 16.136 13.437 29.845 12.962z" fill="#008cec" style="mix-blend-mode:darken"/>
   <a transform="matrix(.44668 0 0 .44668 62.437 19.991)" fill="#2f4f4f" stroke-width=".77685">
    <g transform="matrix(-.80568 .29324 .29324 .80568 170.15 -20.635)" stroke-width=".90607">
     <path d="m91.862 44.265c1.0641 12.73-12.625 12.45-13.159 0.43097s12.095-13.161 13.159-0.43097z" fill="#2f4f4f"/>
     <path d="m91.862 44.265s-6.7832-5.2219-13.044-1.5252c0.28536 3.5591 13.044 1.5252 13.044 1.5252z" fill="#f0ffff" stroke="#353535" stroke-linejoin="bevel" stroke-width=".90607"/>
     <path d="m78.817 42.74c-1.9556-0.34469-2.7438 1.1864-7.0201-3.2194" fill="none" stroke="#353535" stroke-width=".90607"/>
    </g>
   </a>
   <path d="m104.24 39.088-0.26027 1.2438" fill="none" stroke="#353535" stroke-width=".26458px"/>
   <path d="m113.38 36.879 0.63873 1.076" fill="none" stroke="#353535" stroke-width=".26458px"/>
  </g>
 </g>
</svg>
