<svg width="210mm" height="297mm" version="1.1" viewBox="0 0 210 297" xmlns="http://www.w3.org/2000/svg">
 <style/>
 <defs>
  <filter id="filter10247" x="-.8754" y="-1.9072" width="2.7508" height="4.8144" color-interpolation-filters="sRGB">
   <feGaussianBlur stdDeviation="0.8375925"/>
  </filter>
 </defs>
 <g>
  <g>
   <path d="m50.634 212.44-0.53307-16.736 9.0375 12.2" fill="#008c00" style="mix-blend-mode:luminosity"/>
   <path d="m35.819 210.43 5.4727-5.9782 2.6538 6.1672" fill="#008c00" style="mix-blend-mode:luminosity"/>
   <path d="m32.175 206.4-0.24064-2.1908 3.4624-0.84023" fill="#008c00" style="mix-blend-mode:luminosity"/>
   <path d="m94.344 195.46c-10.086 26.343-92.736 35.795-57.933-1.7972 2.7699-2.2093-7.6245 14.817-2.1378 17.126 7.9952 3.3645 24.414-2.9815 27.964-6.8098 8.6275-9.304 23.974-36.603 23.974-36.603" fill="#3cb371"/>
   <path d="m82.254 176.74c7.4393 4.4313 6.4034 9.947-23.116 19.52l19.805-23.797" fill="#49c17f" style="mix-blend-mode:luminosity"/>
   <path d="m62.719 82.669 21.055 29.088-23.438 14.617 16.355 15.219-21.562 17.688 22.526 16.298-28.102 5.5022 9.5851 26.823-9.0375-12.2-6.155 14.914-2.6538-6.1672-8.999 2.445 4.0081-3.6387-3.5164-1.5995 4.851-2.7449-1.4484-5.4233s-6.2753 7.9004-6.0257 11.966 1.6897 7.1517 5.5203 8.5136 13.533 0.0968 18.612-1.8578c14.909-5.737 22.149-20.175 30.216-38.329 7.6878-17.301 18.041-68.279 18.041-68.279" fill="#2f4f4f" stroke="#264040" stroke-width=".6" style="mix-blend-mode:normal"/>
   <path d="m80.985 165.64s-12.101-9.5496-25.856-6.3599l21.562-17.688" fill="#008c00" style="mix-blend-mode:luminosity"/>
   <path d="m79.765 137.01s-12.093-10.324-19.429-10.64l20.498 2.2214" fill="#008c00" style="mix-blend-mode:luminosity"/>
   <path d="m62.412 82.669 20.039-2.6829-10.175-10.541 33.405 26.48" fill="#008c00" style="mix-blend-mode:luminosity"/>
   <path d="m71.356 191.67s-5.9145-9.6052-13.25-9.9211l19.55-6.1703" fill="#008c00" style="mix-blend-mode:luminosity"/>
   <path d="m33.354 200.61 1.4839-3.9153 2.0214 1.782" fill="#008c00" style="mix-blend-mode:luminosity"/>
  </g>
 </g>
 <g>
  <g id="left-arm">
   <path d="m152.87 174.27 1.2588-1.0761 1.1876 6.0176z" fill="#745050"/>
   <path d="m135.76 140.6s9.3645-2.2605 14.575-0.73963l-0.58608 18.697s4.0539 2.7952 5.8663 4.4503c2.5472 2.3262 5.48 5.7221 5.48 5.7221s-4.5645-3.1152-9.0857-2.4921c2.2719 3.5858 3.0393 11.985 3.0393 11.985s-2.0293-3.6165-4.2097-6.4519c-1.0502-1.3656-3.9891-5.2015-3.9891-5.2015l-1.6751 6.4223c-1.7219-10.32-9.4151-32.392-9.4151-32.392z" fill="#2e8b57"/>
   <path d="m145.98 169.71-0.89917 4.116-0.47415-5.2179z" fill="#745050"/>
   <path d="m157.24 166.62 1.445-0.61553 3.2874 3.4802z" fill="#745050"/>
   <path d="m150.34 139.86c-9.5975 2.7576-14.575 0.7397-14.575 0.73963 0 0-19.529-45.989-6.6874-47.045 15.333-1.2607 21.613 24.509 21.263 46.305z" fill="#3b3b3b" stroke="#2c2c2c" stroke-width=".16553"/>
  </g>
 </g>
 <g>
  <g id="left-leg">
   <path d="m143.84 160.84-6.5128 52.017c1.917 7.9915-5.8135 3.1923-11.319-0.52567l-7.6545-30.159z" fill="#dc143c"/>
   <path d="m143.72 160.7-6.6493 52.037c-0.40004 3.1307-3.9782-14.742-7.8379-22.335-4.2174-8.2974-11.087-8.0804-11.087-8.0804z" fill="#b1b1b1" stop-color="#000000" style="font-variation-settings:normal;mix-blend-mode:darken;paint-order:stroke markers fill"/>
   <path d="m137.33 212.86c5.0314 2.5029 12.787 6.274 18.222 7.9676l-5.1046 0.49305 11.433 6.6328c-11.126-2.8384-16.342-3.0905-16.342-3.0905l5.2368 14.041c-15.112-12.688-22.093-18.967-25.345-23.355-1.1143-1.5034 0.58114-3.2142 0.58114-3.2142s5.1187 1.8185 7.473 1.9655c2.3 0.14361 3.8458-1.4398 3.8458-1.4398z" fill="#3cb371" stop-color="#000000" style="font-variation-settings:normal;mix-blend-mode:normal;paint-order:markers fill stroke"/>
   <path d="m145.78 219.77c-5.872 13.855-12.968 2.3437-18.774-5.8182-0.61415-0.89896 5.5129 1.7972 5.5129 1.7972 5.0754 1.4168 7.4943-0.64724 13.261 4.021z" fill="#0cc8fc" stop-color="#000000" style="font-variation-settings:normal;mix-blend-mode:luminosity;paint-order:stroke markers fill"/>
   <path d="m148.99 233.88 1.7829 5.0294-5.6725-4.5823z" fill="#745050"/>
   <path d="m156.24 224.5 5.6425 3.4515-6.0274-1.5073z" fill="#745050"/>
   <path d="m153.38 219.97 2.1776 0.85766-2.2963 0.19637z" fill="#745050" filter="url(#filter10247)"/>
  </g>
 </g>
 <g>
  <g id="pelvis">
   <path d="m84.51 160.72c48.932 3.3258 59.256 0.89785 59.256 0.89785s-8.7696 20.697-25.626 20.701c-10.234 2e-3 -29.567-6.6471-29.567-6.6471s-3.0823-8.6186-4.0638-14.951" fill="#b1143c"/>
  </g>
 </g>
 <g>
  <g id="right-leg">
   <path d="m112.74 214.96s8.7792 7.6788 11.864 10.473c4.7209 4.2768 11.783 15.045 11.783 15.045l-16.872-9.8187-0.24626 18.543c-1.3479-2.2489-10.517-23.224-12.033-19.828l-2.445 5.4788c-1.6833-2.7388-0.59012-13.983-1.8992-18.311 0 0 4.0194 1.6719 6.0202 1.2327 1.5472-0.33966 3.8283-2.8158 3.8283-2.8158z" fill="#3cb371"/>
   <path d="m88.57 175.67 29.833 6.6222s-4.6188 34.06-5.4589 32.94c-2.4051 3.3225-5.8755 4.2559-10.049 1.3158-9.9357-17.569-14.325-40.877-14.325-40.877" fill="#dc143c"/>
   <path d="m120.64 168.46-6.3538 41.603c-4.7284-15.507-11.287-25.645-25.712-34.396z" fill="#b1143c" stop-color="#000000" style="font-variation-settings:normal;mix-blend-mode:normal;paint-order:stroke markers fill"/>
   <path d="m113.76 217.15c1.5828 0.46539 6.2881 5.8902 6.2881 5.8902s1.664 4.3739 0.035 4.4324c-15.657 0.71251-17.745-7.4575-6.3232-10.323z" fill="#49c17e" stop-color="#000000" style="font-variation-settings:normal;mix-blend-mode:luminosity;paint-order:stroke markers fill"/>
   <path d="m106.59 231.21-1.8934 4.3474-1.0445-5.8096z" fill="#745050"/>
   <path d="m119.51 242.77-0.0894 7.3208-2.9822-6.1437z" fill="#745050"/>
   <path d="m132.43 234.73 3.9613 5.7501-7.5006-4.2055z" fill="#745050"/>
  </g>
 </g>
 <g>
  <g id="torso">
   <path d="m142.43 148.52c-28.032 20.406-39.013 8.9826-57.569 11.7l22.275 0.089c-23.113-64.84 39.082-115.25 35.294-11.789z" fill="#464646" stroke="#3b3b3b" stroke-width="1.119"/>
   <path d="m143.77 161.62s-36.664 9.2618-59.313-0.69164c0.10326-7.5593 2.6564-32.163 2.6564-32.163 2.052-41.923 10.185-43.882 22.774-29.108 1.6303 21.134 0.71294 39.847-2.7472 60.656 14.15 0.0877 28.848-5.4775 34.508-11.274 2.669-2.7336 0.81508-39.667-10.526-57 13.626 9.9324 15.617 47.403 12.648 69.581z" fill="#3b3b3b" style="mix-blend-mode:normal"/>
  </g>
 </g>
 <g>
  <g id="head">
   <path d="m111.35 111.97 6.801-11.557 10.171 7.42 0.5358-10.742 11.792 5.4761s1.1372-1.0704-7.4304-11.777c-30.098-8.6761-7.4105-26.448-10.667-32.065-21.338-17.977-50.28 10.723-50.28 10.723l10.175 10.541-20.039 2.6829" fill="#2f4f4f" stroke="#264040" stroke-width=".6" style="mix-blend-mode:normal"/>
   <path d="m62.412 82.669 20.039-2.6829-10.175-10.541 33.405 26.48" fill="#008c00" style="mix-blend-mode:luminosity"/>
   <path d="m122.52 84.552-1.1299-1.4345-1.0805 1.556 2.2104-0.12148" fill="#a0522d" opacity=".86" stroke="#800000" stroke-width=".31" style="mix-blend-mode:lighten;paint-order:fill markers stroke"/>
   <path d="m125.29 84.537-1.3447-1.3447-1.427 1.3598z" fill="#a0522d" opacity=".86" stroke="#800000" stroke-width=".31" style="mix-blend-mode:lighten;paint-order:fill markers stroke"/>
   <path d="m129.48 84.537-1.2632-1.6707-0.65199 1.5892z" fill="#a0522d" opacity=".86" stroke="#800000" stroke-width=".31" style="mix-blend-mode:lighten;paint-order:fill markers stroke"/>
   <path d="m127.57 84.455-1.5077-1.304-0.77424 1.3855z" fill="#a0522d" opacity=".86" stroke="#800000" stroke-width=".31" style="mix-blend-mode:lighten;paint-order:fill markers stroke"/>
   <path d="m131.6 84.537-0.73349-1.63s-1.5077 1.6707-1.3447 1.63c0.163-0.04075 2.0782 0 2.0782 0z" fill="#a0522d" opacity=".86" stroke="#800000" stroke-width=".31" style="mix-blend-mode:lighten;paint-order:fill markers stroke"/>
   <path d="m123.66 82.037-1.1094 1.6568-1.2271-1.2001z" fill="#a0522d" opacity=".86" stroke="#800000" stroke-width=".31" style="mix-blend-mode:lighten;paint-order:fill markers stroke"/>
   <path d="m125.85 81.806-0.86443 1.9017-1.3254-1.6712z" fill="#a0522d" opacity=".86" stroke="#800000" stroke-width=".31" style="mix-blend-mode:lighten;paint-order:fill markers stroke"/>
   <path d="m125.85 81.806 1.4407 1.7865 0.74918-2.1323z" fill="#a0522d" opacity=".86" stroke="#800000" stroke-width=".31" style="mix-blend-mode:lighten;paint-order:fill markers stroke"/>
   <path d="m130.37 81.187 1.6496 2.1755 0.58504-2.2933z" fill="#a0522d" opacity=".86" stroke="#800000" stroke-width=".31" style="mix-blend-mode:lighten;paint-order:fill markers stroke"/>
   <path d="m130.37 81.187s-0.77078 2.2907-1.0013 2.2331c-0.23052-0.05763-1.5344-2.2907-1.5344-2.2907z" fill="#a0522d" opacity=".86" stroke="#800000" stroke-width=".31" style="mix-blend-mode:lighten;paint-order:fill markers stroke"/>
   <path d="m122.6 59.737-1.118 5.8307c-40.599-16.033-21.707 25.956 11.738 25.748l0.321-6.7304-13.253-0.42203 1.0351-1.6702 11.371-1.3021c-0.73627-8.8632-4.3736-14.649-10.094-21.454z" fill="#3cb371" stroke="#008c71" stroke-width=".525"/>
   <path d="m122.04 71.809c1.6098 5.5467-4.371 6.4968-5.8247 1.4351-1.4538-5.0617 4.215-6.9817 5.8247-1.4351z" fill="#2f4f4f"/>
   <path d="m122.08 72.739c-1.4219-1.9081-5.9219-0.73739-5.9219-0.73739s3.6577 1.7515 5.9219 0.73739z" fill="#f0ffff" stroke="#353535" stroke-linejoin="bevel" stroke-width=".347"/>
   <path d="m116.16 72.002c-2.7304-0.08939-2.9784-0.63073-2.9784-0.63073" fill="none" stroke="#353535" stroke-width=".347"/>
   <path d="m124.79 70.544 2.7784 6.2848-2.1952 0.95294" fill-opacity="0" stroke="#008c71" stroke-width=".618"/>
   <path d="m133.22 91.316-0.084-3.6141c-2.7944 3.469-8.9976 2.1808-12.616 0.63464-6.3419-2.998-13.996-9.8027-15.332-13.01-0.45881-1.2242 10.769 5.6573 10.769 5.6573-8.0856-17.876-0.18756-17.14 9.8234-8.9396-1.4312-3.156-1.8536-5.6418-2.1754-7.0949-0.31373-1.4166-0.11906-2.0739 1.445-1.698 1.0824 0.26016-2.4504-3.5147-2.4504-3.5147l-1.118 5.8306c-12.941-4.5788-18.467-4.2619-21.421-1.537-4.3853 4.0456-0.48802 9.5764 3.3137 14.323 4.7251 5.8993 16.136 13.437 29.845 12.962z" fill="#008cec" style="mix-blend-mode:darken"/>
   <path d="m126.3 71.318c1.2844 4.7205 6.1743 2.8269 4.7921-1.5685-1.3822-4.3954-6.0765-3.152-4.7921 1.5685z" fill="#2f4f4f"/>
   <path d="m126.3 71.318s1.7571-2.7677 4.4946-2.2575c0.3635 1.3182-4.4946 2.2575-4.4946 2.2575z" fill="#f0ffff" stroke="#353535" stroke-linejoin="bevel" stroke-width=".347"/>
   <path d="m130.79 69.061c0.65862-0.38019 1.1428 0.06758 2.1047-2.0781" fill="none" stroke="#353535" stroke-width=".347"/>
   <path d="m119.35 71.67-0.26027 1.2438" fill="none" stroke="#353535" stroke-width=".26458px"/>
   <path d="m128.5 69.461 0.63873 1.076" fill="none" stroke="#353535" stroke-width=".26458px"/>
  </g>
 </g>
 <g>
  <g id="right-arm">
   <path d="m87.698 145.65s5.1794 3.7826 8.408 5.0322 8.75 1.4199 8.75 1.4199l-4.6711 16.852s5.0722 3.4973 7.3399 5.5682c3.1871 2.9105 6.8566 7.1594 6.8566 7.1594s-5.7111-3.8978-11.368-3.1181c2.8426 4.4865 3.8027 14.996 3.8027 14.996s-2.539-4.525-5.2671-8.0725c-1.314-1.7087-4.9911-6.508-4.9911-6.508l-2.0958 8.0355c-2.1544-12.912-4.4957-26.734-6.764-41.365z" fill="#3cb371"/>
   <path d="m103.27 153.93c-2.2838 5.1275-3.6475 12.174-3.5117 15.227 0.14099 3.1717 7.4022 6.8139 7.4022 6.8139-4.2501 1.3362-10.938 0.23609-12.44-2.3006 1.8105-13.703-3.205-17.714-5.1322-23.975 3.182 4.5475 8.0421 4.8314 13.681 4.2346z" fill="#49c17e" stop-color="#000000" style="font-variation-settings:normal;mix-blend-mode:luminosity;paint-order:stroke markers fill"/>
   <path d="m97.641 97.377c-11.448 1.0307-11.678 26.625-9.9425 48.269 5.6021 5.202 11.148 5.6628 17.158 6.4521 3.2394-14.087 17.672-55.248-7.2155-54.721z" fill="#464646" stroke="#3b3b3b" stroke-linejoin="round" stroke-width="1.189"/>
   <path d="m104.25 189.61 1.9931-1.2628 0.90076 6.4424z" fill="#745050" stroke="#5c3c3c" stroke-width=".365"/>
   <path d="m95.469 183.74-1.125 4.314-0.84406-5.7762z" fill="#745050" stroke="#5c3c3c" stroke-linejoin="bevel" stroke-width=".365"/>
   <path d="m109.46 179.71 2.2259-1.439 3.7788 4.3544z" fill="#745050" stroke="#5c3c3c" stroke-width=".365"/>
  </g>
 </g>
</svg>
